<?xml version="1.0" encoding="UTF-8" standalone="no"?>
<!-- Created with Inkscape (http://www.inkscape.org/) -->

<svg
   xmlns:dc="http://purl.org/dc/elements/1.1/"
   xmlns:cc="http://creativecommons.org/ns#"
   xmlns:rdf="http://www.w3.org/1999/02/22-rdf-syntax-ns#"
   xmlns:svg="http://www.w3.org/2000/svg"
   xmlns="http://www.w3.org/2000/svg"
   xmlns:sodipodi="http://sodipodi.sourceforge.net/DTD/sodipodi-0.dtd"
   xmlns:inkscape="http://www.inkscape.org/namespaces/inkscape"
   width="835"
   height="150.00424"
   id="svg2882"
   version="1.1"
   inkscape:version="0.47 r22583"
   sodipodi:docname="error-wide.svg"
   inkscape:export-filename="/mnt/data1/www/fileshack/fileshackproject/fileshack/static/fileshack/img/error-wide.png"
   inkscape:export-xdpi="89.997452"
   inkscape:export-ydpi="89.997452">
  <defs
     id="defs2884">
    <inkscape:perspective
       sodipodi:type="inkscape:persp3d"
       inkscape:vp_x="0 : 526.18109 : 1"
       inkscape:vp_y="0 : 1000 : 0"
       inkscape:vp_z="744.09448 : 526.18109 : 1"
       inkscape:persp3d-origin="372.04724 : 350.78739 : 1"
       id="perspective2890" />
    <inkscape:perspective
       id="perspective2867"
       inkscape:persp3d-origin="0.5 : 0.33333333 : 1"
       inkscape:vp_z="1 : 0.5 : 1"
       inkscape:vp_y="0 : 1000 : 0"
       inkscape:vp_x="0 : 0.5 : 1"
       sodipodi:type="inkscape:persp3d" />
    <inkscape:perspective
       id="perspective2950"
       inkscape:persp3d-origin="0.5 : 0.33333333 : 1"
       inkscape:vp_z="1 : 0.5 : 1"
       inkscape:vp_y="0 : 1000 : 0"
       inkscape:vp_x="0 : 0.5 : 1"
       sodipodi:type="inkscape:persp3d" />
    <inkscape:perspective
       id="perspective3014"
       inkscape:persp3d-origin="0.5 : 0.33333333 : 1"
       inkscape:vp_z="1 : 0.5 : 1"
       inkscape:vp_y="0 : 1000 : 0"
       inkscape:vp_x="0 : 0.5 : 1"
       sodipodi:type="inkscape:persp3d" />
    <inkscape:perspective
       id="perspective3051"
       inkscape:persp3d-origin="0.5 : 0.33333333 : 1"
       inkscape:vp_z="1 : 0.5 : 1"
       inkscape:vp_y="0 : 1000 : 0"
       inkscape:vp_x="0 : 0.5 : 1"
       sodipodi:type="inkscape:persp3d" />
    <filter
       color-interpolation-filters="sRGB"
       inkscape:collect="always"
       id="filter54265"
       x="-0.027544783"
       width="1.0550896"
       y="-0.10712623"
       height="1.2142525">
      <feGaussianBlur
         inkscape:collect="always"
         stdDeviation="5.7652139"
         id="feGaussianBlur54267" />
    </filter>
    <filter
       color-interpolation-filters="sRGB"
       inkscape:collect="always"
       id="filter54381">
      <feGaussianBlur
         inkscape:collect="always"
         stdDeviation="0.78067067"
         id="feGaussianBlur54383" />
    </filter>
  </defs>
  <sodipodi:namedview
     id="base"
     pagecolor="#ffffff"
     bordercolor="#666666"
     borderopacity="1.0"
     inkscape:pageopacity="0.0"
     inkscape:pageshadow="2"
     inkscape:zoom="0.98994949"
     inkscape:cx="683.87362"
     inkscape:cy="141.30619"
     inkscape:document-units="px"
     inkscape:current-layer="layer1"
     showgrid="false"
     inkscape:window-width="1646"
     inkscape:window-height="1023"
     inkscape:window-x="34"
     inkscape:window-y="0"
     inkscape:window-maximized="1" />
  <metadata
     id="metadata2887">
    <rdf:RDF>
      <cc:Work
         rdf:about="">
        <dc:format>image/svg+xml</dc:format>
        <dc:type
           rdf:resource="http://purl.org/dc/dcmitype/StillImage" />
        <dc:title></dc:title>
      </cc:Work>
    </rdf:RDF>
  </metadata>
  <g
     inkscape:label="Layer 1"
     inkscape:groupmode="layer"
     id="layer1"
     transform="translate(315.16042,-310.78242)">
    <path
       transform="matrix(1.636267,0,0,1.0928214,-536.01444,-33.850363)"
       inkscape:export-ydpi="105.57107"
       inkscape:export-xdpi="105.57107"
       inkscape:export-filename="/mnt/data1/www/fileshack/fileshackproj/fileshack/media/error-wide.png"
       style="color:#000000;fill:#000000;fill-opacity:1;fill-rule:nonzero;stroke:none;stroke-width:1;marker:none;visibility:visible;display:inline;overflow:visible;filter:url(#filter54381);enable-background:accumulate"
       d="m 141.87635,340.93035 63.06759,0 18.9744,-23.69617 19.30545,23.69617 396.48315,0 c 0.12653,0 0.22835,1.57145 0.22835,3.52342 l 0,98.41783 c 0,1.95197 -0.10186,3.52342 -0.22835,3.52342 l -497.83059,0 c -0.12653,0 -0.22835,-1.57145 -0.22835,-3.52342 l 0,-98.41783 c 0,-1.95197 0.10185,-3.52342 0.22835,-3.52342 z"
       id="path54399"
       sodipodi:nodetypes="cccccccccccc" />
    <path
       inkscape:export-ydpi="105.57107"
       inkscape:export-xdpi="105.57107"
       inkscape:export-filename="/mnt/data1/www/fileshack/fileshackproj/fileshack/media/error-wide.png"
       style="color:#000000;fill:none;stroke:#cc0000;stroke-width:2;stroke-miterlimit:4;stroke-dasharray:none;marker:none;visibility:visible;display:inline;overflow:visible;enable-background:accumulate"
       d="m -306.29334,338.27599 103.33678,0 32.23876,-25.52733 30.64495,25.52733 649.47921,0 c 0.20697,0 0.37401,1.69856 0.37401,3.80843 l 0,106.37896 c 0,2.10986 -0.16716,3.80843 -0.37401,3.80843 l -815.6997,0 c -0.20733,0 -0.37416,-1.69857 -0.37416,-3.80843 l 0,-106.37896 c 0,-2.10987 0.16688,-3.80843 0.37416,-3.80843 z"
       id="path54401"
       sodipodi:nodetypes="cccccccccccc" />
    <path
       inkscape:export-ydpi="105.57107"
       inkscape:export-xdpi="105.57107"
       inkscape:export-filename="/mnt/data1/www/fileshack/fileshackproj/fileshack/media/error-wide.png"
       sodipodi:nodetypes="cccccccccccc"
       id="path54403"
       d="m -305.54001,338.77261 103.07571,0 31.45346,-25.33752 30.75836,25.33752 648.35133,0 c 0.20662,0 0.37295,1.6803 0.37295,3.76748 l 0,105.23498 c 0,2.08717 -0.16645,3.76748 -0.37295,3.76748 l -813.63886,0 c -0.20677,0 -0.37319,-1.68031 -0.37319,-3.76748 l 0,-105.23498 c 0,-2.08718 0.16647,-3.76748 0.37319,-3.76748 z"
       style="color:#000000;fill:#ef0808;fill-opacity:1;fill-rule:nonzero;stroke:#f67f7f;stroke-width:1;stroke-opacity:1;marker:none;visibility:visible;display:inline;overflow:visible;enable-background:accumulate" />
    <path
       inkscape:export-ydpi="105.57107"
       inkscape:export-xdpi="105.57107"
       inkscape:export-filename="/mnt/data1/www/fileshack/fileshackproj/fileshack/media/error-wide.png"
       transform="matrix(1.5735822,0,0,0.91371581,-510.21884,41.611819)"
       style="opacity:0.97832576;color:#000000;fill:#f20909;fill-opacity:1;fill-rule:nonzero;stroke:#ef2929;stroke-width:0.83396858;marker:none;visibility:visible;display:inline;overflow:visible;filter:url(#filter54265);enable-background:accumulate"
       d="m 138.34266,338.91004 63.57901,0 18.0307,-24.02016 15.84683,24.02016 404.41096,0 c 0.12755,0 0.2302,1.57145 0.2302,3.52342 l 0,98.41783 c 0,1.95197 -0.10269,3.52342 -0.2302,3.52342 l -501.8675,0 c -0.12755,0 -0.2302,-1.57145 -0.2302,-3.52342 l 0,-98.41783 c 0,-1.95197 0.10268,-3.52342 0.2302,-3.52342 z"
       id="path54405"
       sodipodi:nodetypes="cccccccccccc" />
  </g>
</svg>
