<?xml version="1.0" encoding="UTF-8" standalone="no"?>
<!-- Created with Inkscape (http://www.inkscape.org/) -->

<svg
   xmlns:dc="http://purl.org/dc/elements/1.1/"
   xmlns:cc="http://creativecommons.org/ns#"
   xmlns:rdf="http://www.w3.org/1999/02/22-rdf-syntax-ns#"
   xmlns:svg="http://www.w3.org/2000/svg"
   xmlns="http://www.w3.org/2000/svg"
   xmlns:sodipodi="http://sodipodi.sourceforge.net/DTD/sodipodi-0.dtd"
   xmlns:inkscape="http://www.inkscape.org/namespaces/inkscape"
   width="511.99982"
   height="140.00769"
   id="svg2882"
   version="1.1"
   inkscape:version="0.47 r22583"
   sodipodi:docname="error.svg">
  <defs
     id="defs2884">
    <inkscape:perspective
       sodipodi:type="inkscape:persp3d"
       inkscape:vp_x="0 : 526.18109 : 1"
       inkscape:vp_y="0 : 1000 : 0"
       inkscape:vp_z="744.09448 : 526.18109 : 1"
       inkscape:persp3d-origin="372.04724 : 350.78739 : 1"
       id="perspective2890" />
    <inkscape:perspective
       id="perspective2867"
       inkscape:persp3d-origin="0.5 : 0.33333333 : 1"
       inkscape:vp_z="1 : 0.5 : 1"
       inkscape:vp_y="0 : 1000 : 0"
       inkscape:vp_x="0 : 0.5 : 1"
       sodipodi:type="inkscape:persp3d" />
    <filter
       color-interpolation-filters="sRGB"
       inkscape:collect="always"
       id="filter54381">
      <feGaussianBlur
         inkscape:collect="always"
         stdDeviation="0.78067067"
         id="feGaussianBlur54383" />
    </filter>
    <inkscape:perspective
       id="perspective3494"
       inkscape:persp3d-origin="0.5 : 0.33333333 : 1"
       inkscape:vp_z="1 : 0.5 : 1"
       inkscape:vp_y="0 : 1000 : 0"
       inkscape:vp_x="0 : 0.5 : 1"
       sodipodi:type="inkscape:persp3d" />
    <filter
       height="1.2142525"
       y="-0.10712623"
       width="1.0550896"
       x="-0.027544783"
       id="filter54265-6"
       inkscape:collect="always"
       color-interpolation-filters="sRGB">
      <feGaussianBlur
         id="feGaussianBlur54267-7"
         stdDeviation="5.7652139"
         inkscape:collect="always" />
    </filter>
    <inkscape:perspective
       id="perspective3521"
       inkscape:persp3d-origin="0.5 : 0.33333333 : 1"
       inkscape:vp_z="1 : 0.5 : 1"
       inkscape:vp_y="0 : 1000 : 0"
       inkscape:vp_x="0 : 0.5 : 1"
       sodipodi:type="inkscape:persp3d" />
    <inkscape:perspective
       id="perspective3542"
       inkscape:persp3d-origin="0.5 : 0.33333333 : 1"
       inkscape:vp_z="1 : 0.5 : 1"
       inkscape:vp_y="0 : 1000 : 0"
       inkscape:vp_x="0 : 0.5 : 1"
       sodipodi:type="inkscape:persp3d" />
  </defs>
  <sodipodi:namedview
     id="base"
     pagecolor="#ffffff"
     bordercolor="#666666"
     borderopacity="1.0"
     inkscape:pageopacity="0.0"
     inkscape:pageshadow="2"
     inkscape:zoom="1.4"
     inkscape:cx="274.95081"
     inkscape:cy="90.149463"
     inkscape:document-units="px"
     inkscape:current-layer="layer1"
     showgrid="false"
     inkscape:window-width="1646"
     inkscape:window-height="1023"
     inkscape:window-x="34"
     inkscape:window-y="0"
     inkscape:window-maximized="1" />
  <metadata
     id="metadata2887">
    <rdf:RDF>
      <cc:Work
         rdf:about="">
        <dc:format>image/svg+xml</dc:format>
        <dc:type
           rdf:resource="http://purl.org/dc/dcmitype/StillImage" />
        <dc:title></dc:title>
      </cc:Work>
    </rdf:RDF>
  </metadata>
  <g
     inkscape:label="Layer 1"
     inkscape:groupmode="layer"
     id="layer1"
     transform="translate(-118.85097,-470.06972)">
    <path
       sodipodi:nodetypes="cccccccccccc"
       id="path54289"
       d="m 141.87635,340.93035 63.06759,0 26.59777,-23.69617 27.27114,23.69617 380.89409,0 c 0.12653,0 0.22835,1.57145 0.22835,3.52342 l 0,98.41783 c 0,1.95197 -0.10186,3.52342 -0.22835,3.52342 l -497.83059,0 c -0.12653,0 -0.22835,-1.57145 -0.22835,-3.52342 l 0,-98.41783 c 0,-1.95197 0.10185,-3.52342 0.22835,-3.52342 z"
       style="color:#000000;fill:#000000;fill-opacity:1;fill-rule:nonzero;stroke:none;stroke-width:1;marker:none;visibility:visible;display:inline;overflow:visible;filter:url(#filter54381);enable-background:accumulate"
       inkscape:export-filename="/mnt/data1/www/fileshack/fileshackproj/fileshack/media/error.png"
       inkscape:export-xdpi="105.57107"
       inkscape:export-ydpi="105.57107"
       transform="matrix(1.0024053,0,0,1.01975,-16.260243,148.48078)" />
    <path
       sodipodi:nodetypes="cccccccccccc"
       id="path54247"
       d="m 124.47012,495.72501 63.22244,0 26.88858,-23.82047 27.1126,23.82047 381.82934,0 c 0.12684,0 0.22891,1.58499 0.22891,3.55378 l 0,99.26591 c 0,1.9688 -0.10211,3.55379 -0.22891,3.55379 l -499.05296,0 c -0.12684,0 -0.22892,-1.58499 -0.22892,-3.55379 l 0,-99.26591 c 0,-1.96879 0.10211,-3.55378 0.22892,-3.55378 z"
       style="color:#000000;fill:none;stroke:#339900;stroke-width:2;stroke-miterlimit:4;stroke-dasharray:none;marker:none;visibility:visible;display:inline;overflow:visible;enable-background:accumulate;stroke-linecap:butt;stroke-linejoin:miter;stroke-opacity:1;stroke-dashoffset:0"
       inkscape:export-filename="/mnt/data1/www/fileshack/fileshackproj/fileshack/media/error.png"
       inkscape:export-xdpi="105.57107"
       inkscape:export-ydpi="105.57107" />
    <path
       style="color:#000000;fill:#a3fc76;fill-opacity:1;fill-rule:nonzero;stroke:#ffffff;stroke-width:1;stroke-opacity:1;marker:none;visibility:visible;display:inline;overflow:visible;enable-background:accumulate;stroke-linecap:butt;stroke-linejoin:miter;stroke-miterlimit:4;stroke-dasharray:none;stroke-dashoffset:0"
       d="m 124.93102,496.18842 63.06272,0 26.59571,-23.64335 27.26904,23.64335 98.78672,0 282.07796,0 c 0.12652,0 0.22833,1.56795 0.22833,3.51557 l 0,98.19844 c 0,1.94762 -0.10185,3.51557 -0.22833,3.51557 l -497.79215,0 c -0.12653,0 -0.22834,-1.56795 -0.22834,-3.51557 l 0,-98.19844 c 0,-1.94762 0.10184,-3.51557 0.22834,-3.51557 z"
       id="rect54228"
       sodipodi:nodetypes="ccccccccccccc"
       inkscape:export-filename="/mnt/data1/www/fileshack/fileshackproj/fileshack/media/error.png"
       inkscape:export-xdpi="105.57107"
       inkscape:export-ydpi="105.57107" />
    <path
       sodipodi:nodetypes="cccccccccccc"
       id="path54251"
       d="m 138.34266,338.91004 63.57901,0 26.81345,-23.69617 27.49228,23.69617 383.98276,0 c 0.12755,0 0.2302,1.57145 0.2302,3.52342 l 0,98.41783 c 0,1.95197 -0.10269,3.52342 -0.2302,3.52342 l -501.8675,0 c -0.12755,0 -0.2302,-1.57145 -0.2302,-3.52342 l 0,-98.41783 c 0,-1.95197 0.10268,-3.52342 0.2302,-3.52342 z"
       style="opacity:0.97832576000000004;color:#000000;fill:#c1ff84;fill-opacity:1;fill-rule:nonzero;stroke:none;stroke-width:1.10293539;marker:none;visibility:visible;display:inline;overflow:visible;filter:url(#filter54265-6);enable-background:accumulate"
       transform="matrix(0.96414889,0,0,0.85262035,-0.46954572,218.8972)"
       inkscape:export-filename="/mnt/data1/www/fileshack/fileshackproj/fileshack/media/error.png"
       inkscape:export-xdpi="105.57107"
       inkscape:export-ydpi="105.57107" />
  </g>
</svg>
