<?xml version="1.0" encoding="UTF-8" standalone="no"?>
<svg
   xmlns:dc="http://purl.org/dc/elements/1.1/"
   xmlns:cc="http://creativecommons.org/ns#"
   xmlns:rdf="http://www.w3.org/1999/02/22-rdf-syntax-ns#"
   xmlns:svg="http://www.w3.org/2000/svg"
   xmlns="http://www.w3.org/2000/svg"
   xmlns:xlink="http://www.w3.org/1999/xlink"
   version="1.1"
   id="svg12958"
   height="145.84822"
   width="282.32291">
  <defs
     id="defs12960">
    <linearGradient
       y2="230.21931"
       x2="286.42856"
       y1="215.21933"
       x1="280.61691"
       gradientTransform="matrix(1.1639586,0,0,1.1644903,418.86991,-687.23062)"
       gradientUnits="userSpaceOnUse"
       id="linearGradient5782"
       xlink:href="#linearGradient4056" />
    <linearGradient
       id="linearGradient4056">
      <stop
         id="stop4058"
         offset="0"
         style="stop-color:#dff1fe;stop-opacity:1;" />
      <stop
         id="stop4060"
         offset="1"
         style="stop-color:#dff1fe;stop-opacity:0;" />
    </linearGradient>
    <filter
       style="color-interpolation-filters:sRGB"
       height="2.47539"
       y="-0.73769498"
       width="1.4785048"
       x="-0.23925242"
       id="filter4852">
      <feGaussianBlur
         id="feGaussianBlur4854"
         stdDeviation="7.3769497" />
    </filter>
    <linearGradient
       gradientTransform="matrix(1.1705599,0,0,1.1710678,257.90687,-622.53046)"
       gradientUnits="userSpaceOnUse"
       y2="179.41304"
       x2="345.47656"
       y1="179.41304"
       x1="320.23993"
       id="linearGradient9473"
       xlink:href="#linearGradient9467" />
    <linearGradient
       id="linearGradient9467">
      <stop
         id="stop9469"
         offset="0"
         style="stop-color:#fb8b00;stop-opacity:1;" />
      <stop
         id="stop9471"
         offset="1"
         style="stop-color:#fb8b00;stop-opacity:0;" />
    </linearGradient>
    <linearGradient
       gradientTransform="matrix(1.5795663,0,0,1.1967494,319.56514,-690.5919)"
       gradientUnits="userSpaceOnUse"
       y2="238.05487"
       x2="197.16914"
       y1="221.32231"
       x1="197.16914"
       id="linearGradient6165"
       xlink:href="#linearGradient6159" />
    <linearGradient
       id="linearGradient6159">
      <stop
         id="stop6161"
         offset="0"
         style="stop-color:#000000;stop-opacity:1;" />
      <stop
         id="stop6163"
         offset="1"
         style="stop-color:#000000;stop-opacity:0;" />
    </linearGradient>
    <linearGradient
       gradientTransform="matrix(1.1204382,-0.09704877,0.09702393,1.120725,399.6033,-647.13011)"
       gradientUnits="userSpaceOnUse"
       y2="202.16211"
       x2="272.77475"
       y1="197.36218"
       x1="280"
       id="linearGradient3888"
       xlink:href="#linearGradient3882" />
    <linearGradient
       id="linearGradient3882">
      <stop
         id="stop3884"
         offset="0"
         style="stop-color:#ff920b;stop-opacity:1;" />
      <stop
         id="stop3886"
         offset="1"
         style="stop-color:#c86f00;stop-opacity:1;" />
    </linearGradient>
    <linearGradient
       gradientTransform="matrix(1.1963774,0,0,1.1967494,394.72718,-690.59189)"
       gradientUnits="userSpaceOnUse"
       y2="192.69502"
       x2="212.14053"
       y1="216.46095"
       x1="177.53432"
       id="linearGradient6127"
       xlink:href="#linearGradient6121" />
    <linearGradient
       id="linearGradient6121">
      <stop
         id="stop6123"
         offset="0"
         style="stop-color:#3b77b2;stop-opacity:1;" />
      <stop
         id="stop6125"
         offset="1"
         style="stop-color:#0197fd;stop-opacity:1" />
    </linearGradient>
    <linearGradient
       gradientTransform="matrix(1.1963774,0,0,1.1967494,394.72718,-690.5919)"
       gradientUnits="userSpaceOnUse"
       y2="247.55606"
       x2="240.26895"
       y1="242.34612"
       x1="237.63838"
       id="linearGradient6141"
       xlink:href="#linearGradient6135" />
    <linearGradient
       id="linearGradient6135">
      <stop
         id="stop6137"
         offset="0"
         style="stop-color:#0197fd;stop-opacity:1;" />
      <stop
         id="stop6139"
         offset="1"
         style="stop-color:#0197fd;stop-opacity:0;" />
    </linearGradient>
    <linearGradient
       gradientTransform="matrix(1.1963774,0,0,1.1967494,394.72718,-690.5919)"
       gradientUnits="userSpaceOnUse"
       y2="242.34612"
       x2="237.63838"
       y1="239.94699"
       x1="233.59778"
       id="linearGradient6149"
       xlink:href="#linearGradient6143" />
    <linearGradient
       id="linearGradient6143">
      <stop
         id="stop6145"
         offset="0"
         style="stop-color:#000000;stop-opacity:1;" />
      <stop
         id="stop6147"
         offset="1"
         style="stop-color:#000000;stop-opacity:0;" />
    </linearGradient>
    <linearGradient
       y2="172.54076"
       x2="209.28572"
       y1="218.07646"
       x1="223.21428"
       gradientTransform="matrix(1.1319288,0,0,1.1321796,415.04668,-681.29934)"
       gradientUnits="userSpaceOnUse"
       id="linearGradient6100"
       xlink:href="#linearGradient5872" />
    <linearGradient
       id="linearGradient5872">
      <stop
         id="stop5874"
         offset="0"
         style="stop-color:#0194f7;stop-opacity:1;" />
      <stop
         id="stop5876"
         offset="1"
         style="stop-color:#49b6ff;stop-opacity:1;" />
    </linearGradient>
    <filter
       style="color-interpolation-filters:sRGB"
       id="filter5830">
      <feGaussianBlur
         id="feGaussianBlur5832"
         stdDeviation="2.3796002" />
    </filter>
    <radialGradient
       gradientTransform="matrix(2.7529321,-4.9928472,6.4069742,3.2119719,-4324.3477,4940.951)"
       gradientUnits="userSpaceOnUse"
       r="5.6977367"
       fy="360.49414"
       fx="1149.3149"
       cy="360.49414"
       cx="1149.3149"
       id="radialGradient5898"
       xlink:href="#linearGradient5890" />
    <linearGradient
       id="linearGradient5890">
      <stop
         id="stop5892"
         offset="0"
         style="stop-color:#ffffff;stop-opacity:1;" />
      <stop
         id="stop5894"
         offset="1"
         style="stop-color:#ffffff;stop-opacity:0.75342464" />
    </linearGradient>
    <linearGradient
       gradientTransform="matrix(0.96933475,-0.19634839,0.19632335,0.96970715,452.74326,-445.95496)"
       gradientUnits="userSpaceOnUse"
       y2="33.232231"
       x2="186.50037"
       y1="28.937544"
       x1="190.82043"
       id="linearGradient5684"
       xlink:href="#linearGradient5686" />
    <linearGradient
       id="linearGradient5686">
      <stop
         id="stop5688"
         offset="0"
         style="stop-color:#ffffff;stop-opacity:0;" />
      <stop
         id="stop5690"
         offset="1"
         style="stop-color:#ffffff;stop-opacity:0.69565219;" />
    </linearGradient>
    <linearGradient
       y2="33.232231"
       x2="186.50037"
       y1="28.937544"
       x1="190.82043"
       gradientTransform="matrix(1.2254151,0.22701717,-0.22698828,1.2258864,399.64237,-562.16562)"
       gradientUnits="userSpaceOnUse"
       id="linearGradient5698"
       xlink:href="#linearGradient5686" />
    <linearGradient
       id="linearGradient12744">
      <stop
         id="stop12746"
         offset="0"
         style="stop-color:#ffffff;stop-opacity:0;" />
      <stop
         id="stop12748"
         offset="1"
         style="stop-color:#ffffff;stop-opacity:0.69565219;" />
    </linearGradient>
    <linearGradient
       y2="33.232231"
       x2="186.50037"
       y1="30.848917"
       x1="189.54611"
       gradientTransform="matrix(1.1475763,0.15428943,-0.15426972,1.1480182,403.66437,-535.09621)"
       gradientUnits="userSpaceOnUse"
       id="linearGradient5702"
       xlink:href="#linearGradient5686" />
    <linearGradient
       id="linearGradient12751">
      <stop
         id="stop12753"
         offset="0"
         style="stop-color:#ffffff;stop-opacity:0;" />
      <stop
         id="stop12755"
         offset="1"
         style="stop-color:#ffffff;stop-opacity:0.69565219;" />
    </linearGradient>
    <linearGradient
       y2="33.232231"
       x2="186.50037"
       y1="30.745193"
       x1="188.58952"
       gradientTransform="matrix(1.0106837,-0.00175858,0.00175836,1.0110713,431.12641,-479.6735)"
       gradientUnits="userSpaceOnUse"
       id="linearGradient5706"
       xlink:href="#linearGradient5686" />
    <linearGradient
       id="linearGradient12758">
      <stop
         id="stop12760"
         offset="0"
         style="stop-color:#ffffff;stop-opacity:0;" />
      <stop
         id="stop12762"
         offset="1"
         style="stop-color:#ffffff;stop-opacity:0.69565219;" />
    </linearGradient>
    <linearGradient
       y2="37.258068"
       x2="186.9713"
       y1="31.542496"
       x1="189.22121"
       gradientTransform="matrix(1.0065281,0.02771149,-0.02770794,1.0069155,447.48635,-480.78907)"
       gradientUnits="userSpaceOnUse"
       id="linearGradient5710"
       xlink:href="#linearGradient5686" />
    <linearGradient
       id="linearGradient12765">
      <stop
         id="stop12767"
         offset="0"
         style="stop-color:#ffffff;stop-opacity:0;" />
      <stop
         id="stop12769"
         offset="1"
         style="stop-color:#ffffff;stop-opacity:0.69565219;" />
    </linearGradient>
    <linearGradient
       y2="33.232231"
       x2="186.50037"
       y1="28.937544"
       x1="190.82043"
       gradientTransform="matrix(1.1055781,-0.22022925,0.22020126,1.1060045,413.62239,-454.33684)"
       gradientUnits="userSpaceOnUse"
       id="linearGradient5718"
       xlink:href="#linearGradient5686" />
    <linearGradient
       id="linearGradient12772">
      <stop
         id="stop12774"
         offset="0"
         style="stop-color:#ffffff;stop-opacity:0;" />
      <stop
         id="stop12776"
         offset="1"
         style="stop-color:#ffffff;stop-opacity:0.69565219;" />
    </linearGradient>
    <linearGradient
       y2="33.232231"
       x2="186.50037"
       y1="28.937544"
       x1="190.82043"
       gradientTransform="matrix(1.0401828,0.03608121,-0.03607666,1.0405818,440.77878,-513.60805)"
       gradientUnits="userSpaceOnUse"
       id="linearGradient5722"
       xlink:href="#linearGradient5686" />
    <linearGradient
       id="linearGradient12779">
      <stop
         id="stop12781"
         offset="0"
         style="stop-color:#ffffff;stop-opacity:0;" />
      <stop
         id="stop12783"
         offset="1"
         style="stop-color:#ffffff;stop-opacity:0.69565219;" />
    </linearGradient>
    <linearGradient
       y2="34.195282"
       x2="189.66782"
       y1="29.277452"
       x1="187.96051"
       gradientTransform="matrix(0.92951774,0.09213775,-0.09212595,0.92987548,487.67333,-488.2985)"
       gradientUnits="userSpaceOnUse"
       id="linearGradient5726"
       xlink:href="#linearGradient5686" />
    <linearGradient
       id="linearGradient12786">
      <stop
         id="stop12788"
         offset="0"
         style="stop-color:#ffffff;stop-opacity:0;" />
      <stop
         id="stop12790"
         offset="1"
         style="stop-color:#ffffff;stop-opacity:0.69565219;" />
    </linearGradient>
    <filter
       style="color-interpolation-filters:sRGB"
       height="5.0919294"
       y="-2.0459647"
       width="1.4059974"
       x="-0.20299868"
       id="filter4032">
      <feGaussianBlur
         id="feGaussianBlur4034"
         stdDeviation="1.6146407" />
    </filter>
    <filter
       style="color-interpolation-filters:sRGB"
       height="1.6369232"
       y="-0.3184616"
       width="1.8279998"
       x="-0.41399989"
       id="filter4036">
      <feGaussianBlur
         id="feGaussianBlur4038"
         stdDeviation="1.3068855" />
    </filter>
    <linearGradient
       y2="210.56776"
       x2="279.55972"
       y1="243.23"
       x1="279.55972"
       gradientTransform="matrix(1.1639586,0,0,1.1644903,418.86991,-687.23062)"
       gradientUnits="userSpaceOnUse"
       id="linearGradient5778"
       xlink:href="#linearGradient4040" />
    <linearGradient
       id="linearGradient4040">
      <stop
         id="stop4042"
         offset="0"
         style="stop-color:#b3defd;stop-opacity:1;" />
      <stop
         id="stop4044"
         offset="1"
         style="stop-color:#ffffff;stop-opacity:1;" />
    </linearGradient>
    <linearGradient
       y2="218.63431"
       x2="276.93488"
       y1="234.39116"
       x1="292.69171"
       gradientTransform="matrix(1.1639586,0,0,1.1644903,418.86991,-687.23062)"
       gradientUnits="userSpaceOnUse"
       id="linearGradient5780"
       xlink:href="#linearGradient4048" />
    <linearGradient
       id="linearGradient4048">
      <stop
         id="stop4050"
         offset="0"
         style="stop-color:#89c3ee;stop-opacity:1;" />
      <stop
         id="stop4052"
         offset="1"
         style="stop-color:#89c3ee;stop-opacity:0;" />
    </linearGradient>
    <radialGradient
       gradientUnits="userSpaceOnUse"
       gradientTransform="matrix(3.1162762,-1.7664133,3.2595822,2.165413,-497.41264,-326.9284)"
       r="3.6255977"
       fy="129.42474"
       fx="245.96573"
       cy="129.42474"
       cx="245.96573"
       id="radialGradient5844"
       xlink:href="#linearGradient5836" />
    <linearGradient
       id="linearGradient5836">
      <stop
         id="stop5838"
         offset="0"
         style="stop-color:#000000;stop-opacity:1;" />
      <stop
         id="stop5840"
         offset="1"
         style="stop-color:#000000;stop-opacity:0;" />
    </linearGradient>
    <filter
       style="color-interpolation-filters:sRGB"
       height="1.3379864"
       y="-0.16899313"
       width="1.1333729"
       x="-0.066686474"
       id="filter6167">
      <feGaussianBlur
         id="feGaussianBlur6169"
         stdDeviation="3.0008719" />
    </filter>
    <radialGradient
       gradientUnits="userSpaceOnUse"
       gradientTransform="matrix(0.23715509,0.34742824,-0.56043507,0.38279184,706.16843,-578.4564)"
       r="24.921875"
       fy="150.81241"
       fx="228.65056"
       cy="150.81241"
       cx="228.65056"
       id="radialGradient6111"
       xlink:href="#linearGradient6105" />
    <linearGradient
       id="linearGradient6105">
      <stop
         id="stop6107"
         offset="0"
         style="stop-color:#000000;stop-opacity:0.53846154" />
      <stop
         id="stop6109"
         offset="1"
         style="stop-color:#000000;stop-opacity:0;" />
    </linearGradient>
    <radialGradient
       r="24.921875"
       fy="127.43016"
       fx="213.92406"
       cy="127.43016"
       cx="213.92406"
       gradientTransform="matrix(0.39116825,0.61404137,-0.86105482,0.54886657,710.5283,-658.45416)"
       gradientUnits="userSpaceOnUse"
       id="radialGradient6131"
       xlink:href="#linearGradient6105" />
    <linearGradient
       y2="33.232231"
       x2="186.50037"
       y1="28.937544"
       x1="190.82043"
       gradientTransform="matrix(1.4052738,-0.19940901,0.19938361,1.4058142,370.78146,-495.69015)"
       gradientUnits="userSpaceOnUse"
       id="linearGradient3058"
       xlink:href="#linearGradient5686" />
    <linearGradient
       id="linearGradient12822">
      <stop
         id="stop12824"
         offset="0"
         style="stop-color:#ffffff;stop-opacity:0;" />
      <stop
         id="stop12826"
         offset="1"
         style="stop-color:#ffffff;stop-opacity:0.69565219;" />
    </linearGradient>
    <linearGradient
       y2="33.232231"
       x2="186.50037"
       y1="28.937544"
       x1="190.82043"
       gradientTransform="matrix(1.3378705,0.12501049,-0.12499445,1.338384,380.36225,-559.51978)"
       gradientUnits="userSpaceOnUse"
       id="linearGradient3062"
       xlink:href="#linearGradient5686" />
    <linearGradient
       id="linearGradient12829">
      <stop
         id="stop12831"
         offset="0"
         style="stop-color:#ffffff;stop-opacity:0;" />
      <stop
         id="stop12833"
         offset="1"
         style="stop-color:#ffffff;stop-opacity:0.69565219;" />
    </linearGradient>
    <linearGradient
       y2="33.232231"
       x2="186.50037"
       y1="28.937544"
       x1="190.82043"
       gradientTransform="matrix(0.66590214,-0.43093563,0.43088122,0.66615902,506.03308,-379.25981)"
       gradientUnits="userSpaceOnUse"
       id="linearGradient3066"
       xlink:href="#linearGradient5686" />
    <linearGradient
       id="linearGradient12836">
      <stop
         id="stop12838"
         offset="0"
         style="stop-color:#ffffff;stop-opacity:0;" />
      <stop
         id="stop12840"
         offset="1"
         style="stop-color:#ffffff;stop-opacity:0.69565219;" />
    </linearGradient>
    <linearGradient
       y2="33.232231"
       x2="186.50037"
       y1="28.937544"
       x1="190.82043"
       gradientTransform="matrix(0.82104103,0.00963487,-0.00963365,0.82135697,461.87057,-484.70472)"
       gradientUnits="userSpaceOnUse"
       id="linearGradient3070"
       xlink:href="#linearGradient5686" />
    <linearGradient
       id="linearGradient12843">
      <stop
         id="stop12845"
         offset="0"
         style="stop-color:#ffffff;stop-opacity:0;" />
      <stop
         id="stop12847"
         offset="1"
         style="stop-color:#ffffff;stop-opacity:0.69565219;" />
    </linearGradient>
    <linearGradient
       y2="33.232231"
       x2="186.50037"
       y1="28.937544"
       x1="190.82043"
       gradientTransform="matrix(1.1759038,-0.30019256,0.30015414,1.1763551,425.10923,-437.04434)"
       gradientUnits="userSpaceOnUse"
       id="linearGradient3074"
       xlink:href="#linearGradient5686" />
    <linearGradient
       id="linearGradient12850">
      <stop
         id="stop12852"
         offset="0"
         style="stop-color:#ffffff;stop-opacity:0;" />
      <stop
         id="stop12854"
         offset="1"
         style="stop-color:#ffffff;stop-opacity:0.69565219;" />
    </linearGradient>
    <linearGradient
       y2="33.232231"
       x2="186.50037"
       y1="28.937544"
       x1="190.82043"
       gradientTransform="matrix(1.2426622,0.01921585,-0.01921345,1.2431393,417.57269,-513.67891)"
       gradientUnits="userSpaceOnUse"
       id="linearGradient3078"
       xlink:href="#linearGradient5686" />
    <linearGradient
       id="linearGradient12857">
      <stop
         id="stop12859"
         offset="0"
         style="stop-color:#ffffff;stop-opacity:0;" />
      <stop
         id="stop12861"
         offset="1"
         style="stop-color:#ffffff;stop-opacity:0.69565219;" />
    </linearGradient>
    <linearGradient
       y2="33.232246"
       x2="186.50037"
       y1="28.77253"
       x1="189.31631"
       gradientTransform="matrix(0.89991226,-0.97926886,0.97914444,0.90025888,475.9767,-291.37004)"
       gradientUnits="userSpaceOnUse"
       id="linearGradient3092"
       xlink:href="#linearGradient5686" />
    <linearGradient
       id="linearGradient12864">
      <stop
         id="stop12866"
         offset="0"
         style="stop-color:#ffffff;stop-opacity:0;" />
      <stop
         id="stop12868"
         offset="1"
         style="stop-color:#ffffff;stop-opacity:0.69565219;" />
    </linearGradient>
    <linearGradient
       y2="33.232231"
       x2="186.50037"
       y1="28.937544"
       x1="190.82043"
       gradientTransform="matrix(1.5668613,-0.10075716,0.1007444,1.5674639,357.03409,-528.90512)"
       gradientUnits="userSpaceOnUse"
       id="linearGradient3094"
       xlink:href="#linearGradient5686" />
    <linearGradient
       id="linearGradient12871">
      <stop
         id="stop12873"
         offset="0"
         style="stop-color:#ffffff;stop-opacity:0;" />
      <stop
         id="stop12875"
         offset="1"
         style="stop-color:#ffffff;stop-opacity:0.69565219;" />
    </linearGradient>
    <linearGradient
       y2="33.232231"
       x2="186.50037"
       y1="28.937544"
       x1="190.82043"
       gradientTransform="matrix(1.3670938,-0.58300502,0.58293038,1.3676188,396.29744,-394.65873)"
       gradientUnits="userSpaceOnUse"
       id="linearGradient3096"
       xlink:href="#linearGradient5686" />
    <linearGradient
       id="linearGradient12878">
      <stop
         id="stop12880"
         offset="0"
         style="stop-color:#ffffff;stop-opacity:0;" />
      <stop
         id="stop12882"
         offset="1"
         style="stop-color:#ffffff;stop-opacity:0.69565219;" />
    </linearGradient>
    <linearGradient
       y2="33.232231"
       x2="186.50037"
       y1="28.937544"
       x1="190.82043"
       gradientTransform="matrix(1.4865224,0.01279325,-0.01279159,1.4870935,385.7573,-530.99168)"
       gradientUnits="userSpaceOnUse"
       id="linearGradient3098"
       xlink:href="#linearGradient5686" />
    <linearGradient
       id="linearGradient12885">
      <stop
         id="stop12887"
         offset="0"
         style="stop-color:#ffffff;stop-opacity:0;" />
      <stop
         id="stop12889"
         offset="1"
         style="stop-color:#ffffff;stop-opacity:0.69565219;" />
    </linearGradient>
    <radialGradient
       r="5.6977367"
       fy="360.49414"
       fx="1149.3149"
       cy="360.49414"
       cx="1149.3149"
       gradientTransform="matrix(2.7529321,-4.9928472,6.4069742,3.2119719,-4324.3477,4940.951)"
       gradientUnits="userSpaceOnUse"
       id="radialGradient3880"
       xlink:href="#linearGradient5890" />
  </defs>
  <metadata
     id="metadata12963">
    <rdf:RDF>
      <cc:Work
         rdf:about="">
        <dc:format>image/svg+xml</dc:format>
        <dc:type
           rdf:resource="http://purl.org/dc/dcmitype/StillImage" />
        <dc:title></dc:title>
      </cc:Work>
    </rdf:RDF>
  </metadata>
  <g
     transform="translate(-255.9814,-317.91613)"
     id="layer1">
    <g
       id="g12626"
       transform="translate(-265.90514,834.68177)">
      <path
         id="path5764"
         d="m 728.74159,-424.28301 h 25.65579 l 7.85383,-6.17565 h -24.87043 z"
         style="color:#000000;display:inline;overflow:visible;visibility:visible;fill:url(#linearGradient5782);fill-opacity:1;fill-rule:nonzero;stroke:none;stroke-width:2;marker:none;enable-background:accumulate" />
      <path
         id="path5774"
         d="m 746.72586,-427.74612 c 0,0 3.07069,-6.55066 -3.70262,-7.62808 -6.77333,-1.0774 -2.67227,5.94461 3.70262,7.62808 z"
         style="fill:none;stroke:#816647;stroke-width:1;stroke-linecap:butt;stroke-linejoin:miter;stroke-miterlimit:4;stroke-dasharray:none;stroke-opacity:1" />
      <ellipse
         ry="12"
         rx="37"
         cy="125"
         cx="214"
         style="color:#000000;display:inline;overflow:visible;visibility:visible;fill:#e9eaf3;fill-opacity:1;fill-rule:nonzero;stroke:none;stroke-width:0.5;marker:none;filter:url(#filter4852);enable-background:accumulate"
         id="path4055"
         transform="matrix(2.5804275,0,0,1.0421347,110.83651,-532.14053)" />
      <path
         style="fill:#fb8b00;fill-opacity:1;stroke:none"
         d="m 665.65718,-417.58487 c 8.07423,9.94383 10.43281,13.93151 11.85517,17.35873 -5.6373,3.88865 -4.03371,5.40523 -3.55512,5.11619 5.16581,-3.11972 6.64844,-2.80354 7.68538,-2.64415 2.0071,0.30853 6.18521,2.64415 6.18521,2.64415 0,0 1.75529,-0.18039 -2.44121,-4.55132 2.63274,-0.10586 6.50532,1.8185 7.21271,2.22016 0,0 1.47254,-2.92619 -5.83945,-4.51058 -1.45113,-0.31443 -5.42432,-5.31441 -7.64282,-8.53282 -3.02892,-4.39411 -5.60371,-7.04898 -5.60371,-7.04898 l -8.71072,0.0554 0.85456,-0.1068 z"
         id="path4841" />
      <path
         style="fill:#dfb201;fill-opacity:1;stroke:none"
         d="m 629.54428,-433.35928 c 0,0 3.02552,-1.00057 2.33514,11.85965 -0.52139,9.71175 -1.31267,15.03012 -1.31267,15.03012 -2.69606,2.23662 -6.57214,4.80119 -5.38395,6.24886 3.43461,-1.13283 6.62965,-3.25239 8.13152,-3.25283 2.93405,-8.8e-4 6.72813,2.32258 8.92183,3.90756 1.47689,-2.54749 -1.87556,-3.34546 -3.78513,-4.51616 2.06898,0.194 4.53294,0.57155 6.55147,1.60272 1.75341,-2.07115 -3.00544,-3.44507 -7.81806,-4.38453 0,0 -1.78074,-9.18511 -0.11843,-14.2201 2.13219,-6.45828 7.04809,-7.93954 7.04809,-7.93954 z"
         id="path4847" />
      <path
         id="path5746"
         d="m 629.39515,-433.35928 c 0,0 2.92705,-1.00057 2.25913,11.85965 -0.5044,9.71175 -1.26993,15.03012 -1.26993,15.03012 -2.60832,2.23662 -6.35825,4.80119 -5.20872,6.24886 3.32281,-1.13283 6.41386,-3.25239 7.86687,-3.25283 2.83855,-8.8e-4 7.04931,2.14246 9.17158,3.72744 1.42884,-2.54749 -2.35465,-3.16534 -4.20208,-4.33604 2.00166,0.194 4.92556,0.3614 6.87841,1.39257 1.69634,-2.07115 -3.4478,-3.23492 -8.10375,-4.17438 0,0 -1.72278,-9.18511 -0.1146,-14.2201 2.0628,-6.45828 6.8187,-7.93954 6.8187,-7.93954 z"
         style="fill:url(#linearGradient9473);fill-opacity:1;stroke:none" />
      <path
         style="fill:none;stroke:url(#linearGradient6165);stroke-width:1;stroke-miterlimit:4;stroke-dasharray:none"
         d="m 629.39511,-433.35928 c 0,0 3.86458,-1.00057 2.98275,11.85965 -0.66597,9.71175 -1.29902,15.25679 -1.29902,15.25679"
         id="path6157" />
      <path
         style="fill:#980101;fill-opacity:1;stroke:none"
         d="m 715.11533,-456.86441 c 11.68087,1.65057 23.94583,22.17696 28.03946,24.05469 -7.33849,-12.96527 -13.3208,-22.34735 -22.31713,-29.1486 z"
         id="path4853" />
      <path
         style="fill:url(#linearGradient3888);fill-opacity:1;stroke:none"
         d="m 722.79466,-465.17997 c -0.25765,-6.39879 23.50652,26.82695 22.65439,33.00943 -12.59239,-18.26523 -29.42,-31.47015 -28.59845,-26.99425 z"
         id="path4857" />
      <path
         style="fill:url(#linearGradient6127);fill-opacity:1;stroke:none"
         d="m 699.5898,-484.45972 c -6.63734,-10.66485 -23.33528,-22.27899 -44.07258,-23.91131 -11.74566,-0.92456 -22.42273,1.87024 -30.72912,5.75102 -3.04558,1.42288 -11.91839,4.38053 -14.41936,6.35824 -1.93291,1.52846 6.97409,-1.33723 5.5463,0.22154 -4.82056,5.26277 -8.16931,11.5324 -9.83648,16.34013 -1.63371,4.71125 -4.27204,15.07571 -4.58111,22.72803 0.0911,1.88028 2.96613,-5.79119 3.01116,-4.13439 0.74392,27.37649 17.89202,28.61341 30.75656,31.72724 12.91628,3.12638 22.01244,1.20024 30.85907,13.24627 3.55092,2.22014 5.5939,0.0105 5.5939,0.0105 0,0 -4.80816,-17.37325 -1.32186,-19.86465 10.40668,-7.43687 8.7503,-7.53218 20.90737,-15.15006 7.88933,-4.94359 15.35261,-0.32763 26.11832,-4.27168 0,0 2.90572,-1.64681 3.79342,-4.35677 0.61815,-1.88701 4.01501,-12.67108 -6.16257,-19.28101 -1.73968,-1.12984 -12.07179,-4.71136 -15.46303,-5.41191 h 10e-6 z"
         id="path4838" />
      <path
         style="opacity:0.62538464;fill:url(#linearGradient6141);fill-opacity:1;stroke:url(#linearGradient6149);stroke-width:1px;stroke-linecap:round;stroke-linejoin:miter;stroke-opacity:1"
         d="m 667.05394,-415.84499 c 3.4897,4.07153 6.89508,7.63705 10.96518,15.19217"
         id="path6133" />
      <path
         style="fill:url(#linearGradient6100);fill-opacity:1;stroke:none"
         d="m 702.8892,-485.41957 c -3.5064,-5.81126 -9.88195,-11.90175 -18.19966,-16.53568 -2.06415,-1.14999 -4.81022,-4.60071 -13.56606,-7.37275 -2.1235,-0.67228 2.82526,2.61412 0.60575,1.97233 -3.78854,-1.09547 -7.79561,-1.8607 -11.96994,-2.1996 -11.49446,-0.93324 -21.52503,0.80924 -29.65376,4.72642 -2.98045,1.43624 -12.70882,4.42165 -15.15631,6.41791 -1.89155,1.54282 8.69973,-0.40781 7.06089,0.89406 -5.86882,4.66205 -8.61657,7.50956 -11.44021,14.14973 -4.42232,10.39963 -4.82742,13.68409 -6.30543,20.33546 0.0892,1.89795 3.69122,-4.36665 3.73055,-2.6942 0.10102,4.29337 -0.0161,7.0821 0.78535,10.27142 0.39365,1.56651 1.9206,8.60208 2.45742,9.93528 0.39092,0.97087 0.36435,-2.80171 0.82338,-1.94457 0.30834,0.57572 0.6313,1.12673 0.96788,1.65431 1.20839,1.89408 6.82231,9.07729 8.33599,10.4262 1.49474,1.33206 -1.11396,-3.16413 0.58919,-2.24944 6.80594,3.6552 14.92168,4.43148 21.51628,5.95176 16.74125,3.85943 15.96138,5.82624 22.95659,16.0797 3.47495,2.24097 7.75729,-1.55578 7.75729,-1.55578 0,0 -2.86145,-15.18889 1.09374,-16.65053 2.31886,-0.85695 4.1696,-1.63465 5.78122,-2.3696 1.05342,-0.48038 -0.8789,1.57687 -0.017,1.13367 0.96625,-0.49686 4.70359,-3.49146 5.46018,-3.9842 1.38123,-0.89957 2.49132,-1.66084 3.37995,-2.45453 0.083,0.40231 0.1105,1.05317 -0.40418,2.56207 0.46548,-0.60639 3.76077,-5.72553 6.02833,-9.09332 0.54517,-0.8097 -0.51795,3.12995 -0.14522,2.60976 0.29104,-0.40612 2.06206,-5.34558 2.18979,-5.48072 0.31252,-0.33067 0.62684,-0.62402 0.94326,-0.8839 5.85029,-4.80462 12.42846,1.83245 21.84552,-4.32896 0,0 2.84357,-1.66224 3.71231,-4.39764 0.60488,-1.90474 3.92912,-12.79 -6.03077,-19.46196 -1.70248,-1.14047 -11.81362,-4.75556 -15.13232,-5.4627 h 1e-5 -2e-5 z"
         id="path6025" />
      <path
         style="opacity:0.05;fill:#000000;fill-opacity:1;stroke:none;filter:url(#filter5830)"
         d="m 252.08466,173.28248 c -5.73834,-9.50815 -17.96536,-20.13389 -35.89385,-21.58918 -10.15475,-0.82428 -20.85538,1.184 -27.85444,4.98169 -13.68565,7.42582 -13.23025,14.04717 -18.53081,22.75269 -5.34125,8.77234 -6.59501,46.8101 31.99497,45.07652 14.79002,3.40884 14.05222,3.26454 20.23212,12.32093 3.06994,1.97935 6.23163,-3.43207 6.23163,-3.43207 0,0 -2.83822,-12.17937 0.63252,-13.53213 16.28446,-6.34709 14.74366,-8.13252 20.87645,-14.62009 5.3804,-5.69164 11.16795,-0.59421 19.93744,-6.33065 0,0 2.51214,-1.46818 3.27962,-3.88423 0.53439,-1.68236 2.91887,-8.17713 -5.88017,-14.07015 -1.50405,-1.00732 -9.88441,-7.32002 -12.8163,-7.9446 z"
         id="path5828"
         transform="matrix(1.0637297,0,0,1.0628064,428.93317,-668.67788)" />
      <circle
         r="5.6977367"
         cy="360.49414"
         cx="1149.3149"
         style="color:#000000;display:inline;overflow:visible;visibility:visible;opacity:0.97832576;fill:url(#radialGradient5898);fill-opacity:1;fill-rule:nonzero;stroke:none;stroke-width:0.5;marker:none;enable-background:accumulate"
         id="path4849"
         transform="matrix(0.85184077,0,0,0.89355,-262.57205,-789.69981)" />
      <circle
         r="5.6977367"
         cy="360.49414"
         cx="1149.3149"
         transform="matrix(0.37674242,0,0,0.36832166,285.91904,-599.06553)"
         id="path4851"
         style="color:#000000;display:inline;overflow:visible;visibility:visible;opacity:0.97832576;fill:#000000;fill-opacity:1;fill-rule:nonzero;stroke:none;stroke-width:0.5;marker:none;enable-background:accumulate" />
      <path
         style="fill:url(#linearGradient5684);fill-opacity:1;stroke:none"
         d="m 640.55156,-457.19086 -0.50247,6.84248 6.37868,-2.85378 -5.87621,-3.98871 z"
         id="path5676" />
      <path
         style="fill:url(#linearGradient5698);fill-opacity:1;stroke:none"
         d="m 626.00235,-488.98517 -5.36285,9.89711 10.99529,-0.24043 z"
         id="path5696" />
      <path
         id="path5700"
         d="m 615.28851,-473.37428 -2.72742,5.20419 7.15181,-0.26156 -4.42439,-4.94262 z"
         style="fill:url(#linearGradient5702);fill-opacity:1;stroke:none" />
      <path
         style="fill:url(#linearGradient5706);fill-opacity:1;stroke:none"
         d="m 619.68505,-451.4306 -0.009,5.02941 4.22019,-1.59029 -4.21283,-3.43912 z"
         id="path5704" />
      <path
         id="path5708"
         d="m 632.49922,-445.85194 0.62148,5.49054 5.22942,-3.22306 z"
         style="fill:url(#linearGradient5710);fill-opacity:1;stroke:none" />
      <path
         id="path5716"
         d="m 627.98787,-466.11217 -0.85685,7.45772 7.7239,-2.02511 z"
         style="fill:url(#linearGradient5718);fill-opacity:1;stroke:none" />
      <path
         style="fill:url(#linearGradient5722);fill-opacity:1;stroke:none"
         d="m 636.78141,-481.13546 -3.20717,8.83739 9.05224,-1.55726 z"
         id="path5720" />
      <path
         id="path5724"
         d="m 653.75687,-448.32945 6.88865,9.28621 5.81932,-8.65884 -12.70795,-0.62719 z"
         style="fill:url(#linearGradient5726);fill-opacity:1;stroke:none" />
      <path
         style="fill:#000000;stroke:none"
         d="m 645.01901,-403.79191 c 0,0 0.88231,0.61266 0.8875,1.73415 -0.47703,-0.64745 -1.02009,-0.74122 -1.5051,-1.10072 0.10793,-0.40367 0.37923,-0.595 0.6176,-0.63343 z"
         id="path5744" />
      <rect
         transform="matrix(1.2221598,0,0,0.6902453,416.91922,-573.77755)"
         style="color:#000000;display:inline;overflow:visible;visibility:visible;fill:#000000;fill-opacity:1;fill-rule:nonzero;stroke:none;stroke-width:2;marker:none;filter:url(#filter4032);enable-background:accumulate"
         id="rect5756"
         width="19.089472"
         height="1.8940393"
         x="256.93469"
         y="247.64941"
         ry="0" />
      <path
         transform="matrix(-1.1639586,0,0,1.1644903,432.74003,-692.44835)"
         style="color:#000000;display:inline;overflow:visible;visibility:visible;fill:#000000;fill-opacity:1;fill-rule:nonzero;stroke:none;stroke-width:2;marker:none;filter:url(#filter4036);enable-background:accumulate"
         d="m -280.06481,239.69446 4.29316,4.29315 -0.25254,5.55584 -7.32361,-6.81853 z"
         id="path5758" />
      <rect
         ry="0"
         y="-424.28302"
         x="729.03552"
         height="22.938105"
         width="24.985237"
         id="rect5760"
         style="color:#000000;display:inline;overflow:visible;visibility:visible;fill:url(#linearGradient5778);fill-opacity:1;fill-rule:nonzero;stroke:none;stroke-width:2;marker:none;enable-background:accumulate" />
      <path
         id="path5762"
         d="m 762.8391,-430.45866 -8.81833,6.17565 v 22.9381 l 8.52439,-7.94012 z"
         style="color:#000000;display:inline;overflow:visible;visibility:visible;fill:url(#linearGradient5780);fill-opacity:1;fill-rule:nonzero;stroke:none;stroke-width:2;marker:none;enable-background:accumulate" />
      <path
         id="path5766"
         d="m 741.66057,-401.14523 v -22.79219"
         style="fill:#816647;stroke:#816647;stroke-width:0.99999994px;stroke-linecap:butt;stroke-linejoin:miter;stroke-opacity:1" />
      <path
         style="fill:#816647;stroke:#816647;stroke-width:0.49999997;stroke-linecap:butt;stroke-linejoin:miter;stroke-miterlimit:4;stroke-dasharray:none;stroke-opacity:1"
         d="m 750.85792,-430.61159 -9.30127,6.87454"
         id="path5768" />
      <path
         style="fill:#816647;stroke:#816647;stroke-width:0.5;stroke-linecap:butt;stroke-linejoin:bevel;stroke-miterlimit:4;stroke-dasharray:none;stroke-opacity:1"
         d="m 758.62688,-405.38129 v -22.00655"
         id="path5770" />
      <path
         id="path5772"
         d="m 733.4483,-427.64838 25.41367,0.16834"
         style="fill:#816647;stroke:#816647;stroke-width:0.5;stroke-linecap:butt;stroke-linejoin:miter;stroke-miterlimit:4;stroke-dasharray:none;stroke-opacity:1" />
      <path
         style="fill:none;stroke:#816647;stroke-width:0.80000001;stroke-linecap:butt;stroke-linejoin:miter;stroke-miterlimit:4;stroke-dasharray:none;stroke-opacity:1"
         d="m 746.84336,-427.74614 c 0.13337,-0.007 1.32891,-7.33202 5.19562,-6.7007 6.00188,0.97994 -0.56839,7.45512 -5.19562,6.7007 z"
         id="path5776" />
      <path
         id="path5794"
         d="m 673.39711,-396.12546 c 0,0 -1.25138,1.56825 -0.63259,2.72383 0.60559,-1.36933 1.53729,-2.15719 1.54017,-2.17356 -0.14304,-0.53478 -0.59179,-0.49934 -0.90758,-0.55027 z"
         style="fill:#000000;stroke:none" />
      <path
         style="fill:#000000;stroke:none"
         d="m 687.98595,-395.98088 c 0,0 1.25138,1.56826 0.63257,2.72384 -0.60556,-1.36934 -1.53725,-2.15717 -1.54016,-2.17357 0.14306,-0.53478 0.5918,-0.49934 0.90759,-0.55027 z"
         id="path5796" />
      <path
         id="path5798"
         d="m 692.49369,-398.92115 c 0,0 1.16887,0.81164 1.17576,2.29738 -0.63199,-0.8577 -1.3514,-0.98197 -1.99396,-1.45822 0.14305,-0.53478 0.50242,-0.78823 0.8182,-0.83916 z"
         style="fill:#000000;stroke:none" />
      <path
         id="path5800"
         d="m 670.36962,-411.02638 2.33369,2.87934 c 0.75877,-0.92617 0.86721,-2.23458 2.76151,-3.11281 -2.7653,0.14738 -4.55929,1.27918 -5.0952,0.23352 z"
         style="fill:#000000;stroke:none" />
      <path
         style="fill:#000000;stroke:none"
         d="m 674.79463,-405.67754 1.5923,2.28429 c 0.59359,-0.58458 0.90811,-1.91819 2.0249,-2.07956 -1.79822,-0.39816 -3.19796,0.45529 -3.6172,-0.20469 z"
         id="path5802" />
      <path
         style="fill:url(#radialGradient5844);fill-opacity:1;stroke:none"
         d="m 702.25344,-485.69348 c 0.12755,-0.24446 3.97737,6.36001 3.23945,9.3169 1.16341,0.58402 6.68938,-6.65651 5.99166,-7.00678 0.92436,0.23537 -3.84448,-1.17068 -9.23111,-2.31012 z"
         id="path5834" />
      <path
         transform="matrix(1.0351487,0,0,1.0539825,435.9246,-666.73276)"
         id="path5846"
         d="m 229.8692,210.7301 c -10.64798,6.57595 -52.15154,4.80023 -64.73225,-10.0164 1.44266,10.93193 13.14025,21.08464 38.17453,25.17781 14.79002,3.40884 11.58703,3.89993 19.37223,11.95271 3.06994,1.97935 6.50335,-1.3083 6.50335,-1.3083 0,0 -3.90694,-16.46921 -0.4362,-17.82197 16.28446,-6.34709 14.85095,-4.73587 20.23515,-11.83575 5.77094,-7.60984 8.14235,-6.21922 20.28687,-5.24393 0,0 3.09589,-0.89469 3.86337,-3.31074 -18.26281,-8.68866 -36.23683,8.06487 -43.26705,12.40657 z"
         style="opacity:0.1131222;fill:#000000;fill-opacity:1;stroke:none;filter:url(#filter6167)" />
      <path
         style="fill:#000000;stroke:none"
         d="m 631.96119,-425.09053 v 2.81956 c 1.21865,-1.11026 2.70977,-0.74687 3.78734,-0.93985 -1.73506,-0.47618 -3.38282,-1.09035 -3.78734,-1.87971 z"
         id="path5736" />
      <path
         id="path5738"
         d="m 631.47795,-417.68204 v 1.90577 c 0.68426,-0.75043 1.52149,-0.5048 2.12654,-0.63525 -0.97421,-0.32185 -1.8994,-0.73701 -2.12654,-1.27052 z"
         style="fill:#000000;stroke:none" />
      <path
         style="fill:url(#radialGradient6111);fill-opacity:1;stroke:none"
         d="m 724.88995,-464.98257 c -6.75211,2.48661 -7.90284,7.60153 -13.94527,8.52685 l -11.0665,1.68292 c -6.94956,7.55767 -15.65054,15.84292 -23.0376,18.81805 -5.18871,2.08975 -7.56883,4.61725 -11.58256,4.81776 0.81229,3.80318 7.64731,5.7096 8.15031,4.8992 0.15116,-1.88959 -0.1537,-2.69757 0.0673,-5.49985 0.0171,-0.21672 1.19515,-2.07252 2.62771,-2.3935 3.02115,-1.32455 5.19372,-1.94244 5.19372,-1.94244 l -0.18693,0.89755 c 0,0 2.16648,-1.4868 2.56146,-1.74406 1.38124,-0.89956 5.41059,-3.70777 6.29921,-4.50147 0.083,0.40233 0.29041,0.51063 -0.22433,2.01952 0.46547,-0.6064 3.34047,-5.34604 5.60802,-8.71384 0.54517,-0.80968 -0.26114,3.02587 0.11214,2.5057 0.29103,-0.40613 1.90227,-5.50557 2.05628,-5.60977 1.59434,-1.07862 2.62395,-1.80585 3.02832,-1.86991 6.38439,-1.01136 10.36054,2.57117 19.77762,-3.59025 0,0 2.83255,-1.6776 3.70128,-4.41302 0.18533,-0.58354 0.6243,-1.99951 0.85991,-3.88944 z"
         id="path5886" />
      <path
         id="path6129"
         d="m 724.88995,-464.98257 c -6.75211,2.48661 -7.90284,7.60153 -13.94527,8.52685 l -11.0665,1.68292 c -6.94956,7.55767 -15.65054,15.84292 -23.0376,18.81805 -5.18871,2.08975 -7.56883,4.61725 -11.58256,4.81776 0.81229,3.80318 7.64731,5.7096 8.15031,4.8992 0.15116,-1.88959 -0.1537,-2.69757 0.0673,-5.49985 0.0171,-0.21672 1.19515,-2.07252 2.62771,-2.3935 3.02115,-1.32455 5.19372,-1.94244 5.19372,-1.94244 l -0.18693,0.89755 c 0,0 2.16648,-1.4868 2.56146,-1.74406 1.38124,-0.89956 5.41059,-3.70777 6.29921,-4.50147 0.083,0.40233 0.29041,0.51063 -0.22433,2.01952 0.46547,-0.6064 3.34047,-5.34604 5.60802,-8.71384 0.54517,-0.80968 -0.26114,3.02587 0.11214,2.5057 0.29103,-0.40613 1.90227,-5.50557 2.05628,-5.60977 1.59434,-1.07862 2.62395,-1.80585 3.02832,-1.86991 6.38439,-1.01136 10.36054,2.57117 19.77762,-3.59025 0,0 2.83255,-1.6776 3.70128,-4.41302 0.18533,-0.58354 0.6243,-1.99951 0.85991,-3.88944 z"
         style="fill:url(#radialGradient6131);fill-opacity:1;stroke:none" />
      <path
         style="fill:url(#linearGradient3058);fill-opacity:1;stroke:none"
         d="m 644.36816,-495.79593 -4.87651,9.63427 9.85187,-2.00473 -4.97539,-7.62968 z"
         id="path3056" />
      <path
         id="path3060"
         d="m 632.3272,-499.5287 -6.60557,7.80097 9.51252,0.31774 -2.90695,-8.11874 z"
         style="fill:url(#linearGradient3062);fill-opacity:1;stroke:none" />
      <path
         style="fill:url(#linearGradient3066);fill-opacity:1;stroke:none"
         d="m 644.75635,-443.52202 -0.21302,6.03043 4.52568,-3.3294 -4.31301,-2.70161 z"
         id="path3064" />
      <path
         id="path3068"
         d="m 618.31049,-460.69173 -3.63556,5.07942 5.80932,-0.2794 z"
         style="fill:url(#linearGradient3070);fill-opacity:1;stroke:none" />
      <path
         id="path3072"
         d="m 655.08754,-464.87762 -0.69707,10.9403 9.62088,-4.70673 -8.92383,-6.23356 z"
         style="fill:url(#linearGradient3074);fill-opacity:1;stroke:none" />
      <path
         style="fill:url(#linearGradient3078);fill-opacity:1;stroke:none"
         d="m 652.31724,-479.40709 -3.62629,10.62436 10.77138,-2.06703 -7.14508,-8.55737 z"
         id="path3076" />
      <path
         id="path3082"
         d="m 671.06743,-450.77214 5.28259,6.68567 3.83581,-6.64827 -4.66363,-1.21762 -4.45465,1.18019 z"
         style="fill:url(#linearGradient3092);fill-opacity:1;stroke:none" />
      <path
         id="path3084"
         d="m 658.79764,-505.81861 -6.19526,10.21258 11.03611,-1.37558 -4.84089,-8.83718 z"
         style="fill:url(#linearGradient3094);fill-opacity:1;stroke:none" />
      <path
         style="fill:url(#linearGradient3096);fill-opacity:1;stroke:none"
         d="m 669.43378,-471.31109 1.19917,13.37082 10.76487,-7.49384 z"
         id="path3086" />
      <path
         id="path3088"
         d="m 666.81947,-491.92379 -4.25037,12.73757 12.86678,-2.56061 -8.61638,-10.177 z"
         style="fill:url(#linearGradient3098);fill-opacity:1;stroke:none" />
      <circle
         r="5.6977367"
         cy="360.49414"
         cx="1149.3149"
         transform="matrix(-0.16408714,0,0,-0.17212144,907.16141,-404.8288)"
         id="path3878"
         style="color:#000000;display:inline;overflow:visible;visibility:visible;opacity:0.97832576;fill:url(#radialGradient3880);fill-opacity:1;fill-rule:nonzero;stroke:none;stroke-width:0.5;marker:none;enable-background:accumulate" />
      <path
         style="opacity:0.47058824;fill:none;stroke:#000000;stroke-width:0.5;stroke-linecap:butt;stroke-linejoin:miter;stroke-miterlimit:4;stroke-dasharray:none;stroke-opacity:1"
         d="m 625.2447,-400.39264 c 0,0 6.3498,-3.24104 8.1788,-3.09466 1.829,0.14639 5.84709,1.10533 8.91981,3.66704"
         id="path5857" />
      <path
         id="path5742"
         d="m 642.30055,-400.65817 c 0,0 0.94458,1.18378 0.47748,2.05603 -0.4571,-1.03361 -1.16037,-1.62831 -1.16255,-1.64068 0.10804,-0.40368 0.4467,-0.37691 0.68507,-0.41535 z"
         style="fill:#000000;stroke:none" />
      <path
         style="fill:#000000;stroke:none"
         d="m 625.43695,-401.42434 c 0,0 -0.9446,1.18377 -0.47748,2.05604 0.45711,-1.03361 1.16038,-1.62831 1.16256,-1.64068 -0.10804,-0.40366 -0.4467,-0.37692 -0.68508,-0.41536 z"
         id="path5740" />
      <path
         id="path5859"
         d="m 673.2508,-394.97646 c 0,0 5.1858,-3.16564 7.01766,-3.06091 2.5606,0.14638 5.06664,1.14478 7.3346,2.6818"
         style="opacity:0.47058824;fill:none;stroke:#000000;stroke-width:0.5;stroke-linecap:butt;stroke-linejoin:miter;stroke-miterlimit:4;stroke-dasharray:none;stroke-opacity:1" />
    </g>
  </g>
</svg>
